PathFileType	4	(X/Y/Z)	C:/Users/beibeiliu/ov580/test_trc/User1\sequence.6_training_dense_left.trc
DataRate	CameraRate	NumFrames	NumMarkers	Units	OrigDataRate	OrigDataStartFrame	OrigNumFrames
120	120	18	19	mm	120	1	277
Frame#	Time	ThumbCMC			ThumbMCP			ThumbIP			ThumbTip			IndexMCP			IndexPIP			IndexTip			MiddleMCP			MiddlePIP			MiddleTip			RingMCP			RingPIP			RingTip			PinkyMCP			PinkyPIP			PinkyTip			BackHand1			BackHand2			BackHand3	
		X0	Y0	Z0	X1	Y1	Z1	X2	Y2	Z2	X3	Y3	Z3	X4	Y4	Z4	X5	Y5	Z5	X6	Y6	Z6	X7	Y7	Z7	X8	Y8	Z8	X9	Y9	Z9	X10	Y10	Z10	X11	Y11	Z11	X12	Y12	Z12	X13	Y13	Z13	X14	Y14	Z14	X15	Y15	Z15	X16	Y16	Z16	X17	Y17	Z17	X18	Y18	Z18	
0	0	-147.447	99.9314	36.5618	-124.625	85.2764	29.853	-99.4794	80.0449	19.2884	-77.8014	74.1689	12.677	-155.673	84.5801	-50.326	-149.762	79.2017	-72.967	-147.009	79.0342	-102.575	-183.003	86.5728	-62.5214	-183.256	81.5247	-89.4555	-186.044	75.9592	-118.581	-207.461	81.5575	-58.6837	-210.686	78.077	-80.6572	-215.093	71.4386	-105.088	-238.898	71.853	-35.4389	-246.83	66.6491	-48.1813	-256.387	67.1055	-72.2206	-208.939	103.491	-8.42599	-214.628	117.619	27.3214	-177.743	112.879	10.3488	
1	0.00833333	-148.861	98.2833	33.8497	-124.001	85.5899	28.2302	-103.742	77.687	16.0794	-78.8653	73.7093	12.7231	-156.514	84.7479	-52.3388	-151.513	80.1919	-78.0122	-149.615	78.3166	-104.648	-183.034	86.2089	-65.4674	-183.237	81.7865	-87.3434	-187.379	76.2768	-118.864	-212.444	82.6235	-57.0271	-210.396	77.8101	-81.5592	-215.543	71.9352	-110.671	-235.799	72.7794	-32.8485	-250.636	65.4788	-52.0697	-259.674	68.0983	-69.1912	-212.118	103.193	-5.183	-213.82	117.79	24.1427	-177.227	111.545	8.61834	
2	0.0166667	-150.284	98.259	35.7669	-127.513	85.3491	29.7709	-99.7791	78.2432	15.4855	-83.6909	73.6504	14.2592	-151.757	84.027	-54.9113	-152.678	79.8821	-75.8666	-146.988	78.1621	-100.149	-186.401	87.1103	-62.2819	-184.65	81.1715	-88.4251	-185.542	76.4617	-116.991	-208.008	83.2364	-55.1897	-211.877	76.8991	-85.829	-217.218	71.5729	-109.504	-238.732	73.2218	-33.5633	-250.725	65.5411	-49.5432	-259.641	65.5098	-69.595	-213.4	103.809	-5.94295	-213.916	116.132	24.4579	-179.895	111.977	11.2625	
3	0.025	-146.475	98.2068	32.0095	-126.91	84.6145	26.8976	-102.684	78.1502	16.14	-84.3138	74.3223	16.0694	-155.087	84.053	-54.6637	-148.602	80.6591	-78.5201	-153.09	77.7719	-99.8848	-184.593	87.4704	-60.9054	-185.676	81.2931	-90.5252	-189.13	76.4551	-117.688	-208.242	82.9202	-57.9276	-213.155	77.4033	-84.3019	-215.072	72.6003	-104.505	-234.411	73.6544	-33.9868	-247.159	67.3383	-51.5428	-260.276	68.3185	-69.434	-211.682	102.483	-8.30226	-217.855	116.555	22.8473	-178.329	111.976	8.47007	
4	0.0333333	-151.564	97.8498	34.6555	-124.949	84.4348	25.9369	-101.307	79.166	18.6661	-81.3296	75.0772	16.3219	-152.732	85.6581	-51.1605	-150.872	81.4573	-73.9101	-148.51	79.3276	-98.9103	-182.373	87.6397	-66.8058	-182.988	80.6557	-92.7459	-186.654	77.3943	-116.096	-212.849	82.2206	-56.8391	-211.939	77.9565	-85.9062	-217.438	72.3126	-108.935	-240.257	72.6088	-34.0746	-245.539	67.3701	-51.061	-260.598	68.3324	-70.1268	-212.335	104.443	-8.26306	-211.84	117.098	21.9296	-178.944	111	8.56524	
5	0.0416667	-150.211	97.7214	30.5768	-126.425	85.4658	25.8567	-101.61	78.53	13.8259	-80.5189	75.1139	14.8864	-152.338	86.4459	-50.1331	-153.319	81.7447	-78.7835	-149.34	79.8895	-99.6444	-186.79	87.4367	-65.8689	-184.216	82.4355	-90.4795	-190.379	77.5972	-117.733	-213.648	83.0796	-57.3263	-215.384	78.2556	-85.8201	-219.077	73.0866	-106.218	-238.464	74.6922	-35.4276	-245.377	68.6269	-49.7215	-260.756	66.8196	-69.6376	-209.553	105.717	-4.95455	-214.697	117.423	23.4029	-176.059	112	9.88368	
6	0.05	-148.456	98.9071	31.1047	-124.271	86.2768	26.205	-105.083	77.7556	17.3658	-83.5529	74.159	13.771	-156.17	85.7318	-55.8833	-150.741	81.6959	-74.5493	-152.005	80.01	-100.55	-188.177	87.5759	-66.6075	-184.511	82.8041	-88.5254	-188.892	79.016	-119.961	-209.255	83.891	-55.7438	-214.369	78.5264	-83.3647	-216.118	73.9872	-110.74	-240.864	73.601	-34.8378	-250.607	66.6233	-53.4239	-261.72	67.0326	-71.4399	-209.142	103.677	-4.37636	-217.01	117.833	24.451	-180.041	114.012	9.99051	
7	0.0583333	-150.156	100.693	34.9991	-126.57	86.5638	28.4308	-100.366	80.308	15.6216	-81.4204	76.3417	15.8618	-155.274	86.5661	-54.9787	-149.619	81.5055	-79.484	-152.949	80.516	-100.872	-186.275	87.4856	-66.6883	-185.431	82.2803	-89.6977	-185.226	78.3287	-122.898	-209.32	83.811	-57.4836	-216.953	78.0782	-83.9015	-218.629	73.1781	-107.067	-241.697	73.4865	-37.7263	-247.98	67.5087	-51.2561	-262.513	65.9681	-74.5233	-214.737	103.982	-5.40458	-216.959	117.162	22.2694	-177.25	114.693	8.85788	
8	0.0666667	-149.779	98.8077	32.2401	-126.159	85.1194	25.214	-104.721	78.4144	14.5966	-80.6402	75.2188	11.1299	-155.447	87.0804	-52.8825	-150.918	82.4059	-80.618	-147.267	80.8941	-105.129	-185.42	88.7849	-63.6313	-187.641	82.4049	-93.5162	-187.175	78.1002	-120.551	-211.441	83.5043	-59.2705	-216.224	78.4372	-83.694	-215.533	73.0597	-110.14	-239.968	74.4352	-33.7375	-247.261	67.7684	-50.5596	-261.929	66.7851	-72.4468	-211.914	103.022	-6.85339	-217.97	117.001	25.1092	-179.347	112.566	9.99549	
9	0.075	-152.361	98.333	33.1567	-123.365	85.7417	27.4278	-102.211	80.0563	18.3484	-84.5887	72.5031	12.8834	-154.191	86.6278	-53.9846	-153.932	82.8718	-76.4206	-151.391	81.83	-102.922	-183.72	88.6843	-66.1469	-182.94	83.2032	-91.7343	-185.666	77.0359	-119.578	-208.107	83.7193	-60.8476	-216.658	78.9783	-82.5685	-216.626	71.763	-108.673	-235.45	74.4656	-35.3621	-249.421	66.4878	-52.7349	-259.532	65.8588	-73.0564	-214.778	103.276	-6.74551	-217.245	116.234	20.9992	-178.568	112.754	10.7072	
10	0.0833333	-149.921	98.9195	31.0293	-125.736	85.5796	26.2909	-102.571	78.2326	15.3423	-81.2465	73.9224	12.3083	-156.531	87.0025	-55.924	-150.922	83.6612	-77.9165	-151.364	82.4551	-106.231	-185.052	89.1107	-68.4517	-183.674	83.0677	-91.5716	-189.041	76.4057	-120.416	-214.485	83.297	-59.1085	-216.078	78.8279	-84.0005	-215.984	71.9237	-111.189	-235.966	74.6282	-36.5423	-248.878	67.7659	-53.8542	-259.306	65.5641	-73.9014	-214.895	103.738	-6.82797	-216.779	114.873	20.2099	-180.77	113.539	8.77298	
11	0.0916667	-154.257	97.5852	33.1943	-124.492	86.6594	28.806	-102.244	79.6234	16.8763	-84.9805	72.2723	10.7519	-154.906	88.762	-56.307	-150.369	85.2838	-80.6876	-151.409	83.3801	-103.002	-185.261	90.5932	-65.7733	-186.019	84.0646	-94.3838	-187.167	75.6571	-124.772	-213.031	84.2781	-57.9178	-212.655	78.3925	-84.3728	-217.505	70.7059	-108.162	-237.252	74.4368	-42.427	-246.104	68.184	-53.8623	-261.849	65.1278	-75.685	-214.803	105.378	-8.96455	-219.731	116.2	22.0323	-178.033	111.4	8.39177	
12	0.1	-153.514	98.1133	28.9042	-128.771	84.0347	24.8595	-102.156	79.0779	16.6921	-82.535	73.8206	11.7344	-153.741	90.7005	-57.4554	-148.224	87.5214	-79.4486	-149.515	85.387	-101.879	-183.191	91.114	-68.1185	-184.855	82.4991	-96.3319	-187.263	72.4375	-121.387	-214.457	85.1323	-60.2176	-211.201	77.2606	-88.514	-215.483	66.7016	-110.496	-238.834	75.2862	-37.6973	-246.936	68.0537	-53.6908	-259.188	64.2001	-79.3438	-210.652	104.074	-9.3027	-217.633	115.972	25.1876	-180.818	112.322	10.9153	
13	0.108333	-152.712	98.1391	33.5569	-124.738	85.5121	25.2089	-101.946	79.2883	13.0924	-82.4025	71.6469	7.80642	-158.207	93.8228	-54.7468	-151.578	91.215	-77.2702	-149.26	89.3322	-105.982	-184.87	91.9318	-70.2604	-182.682	80.0783	-96.1124	-183.771	64.3066	-119.527	-211.37	85.6545	-62.756	-212.393	75.7554	-85.6674	-212.426	59.6512	-108.009	-236.996	76.4237	-43.7974	-247.939	65.2399	-59.7557	-253.712	59.4377	-82.0213	-211.869	105.415	-8.79683	-217.422	117.742	23.2873	-181.177	116.42	13.0935	
14	0.116667	-151.012	99.1628	32.9126	-128.299	84.2058	25.6383	-104.961	76.95	12.3719	-87.2707	68.3683	2.838	-158.424	97.1461	-57.3445	-153.849	94.5177	-79.3155	-150.965	92.1481	-105.743	-184.015	92.6014	-66.7087	-181.657	76.2698	-94.1254	-183.279	46.3814	-116.205	-210.498	85.7935	-61.7323	-210.845	69.2419	-87.4621	-207.216	46.516	-100.83	-239.967	75.7717	-42.2071	-245.423	65.8147	-57.8839	-247.984	48.1507	-84.3375	-216.699	108.203	-5.75778	-217.102	115.421	24.4173	-182.633	116.542	11.2881	
15	0.125	-152.08	97.9796	31.5129	-130.203	80.6207	18.9633	-106.864	73.1678	2.76252	-91.4489	62.7807	-1.9423	-157.852	101.09	-55.4904	-151.893	99.0518	-79.685	-154.813	97.4381	-109.241	-187.738	92.0452	-66.4191	-179.78	67.1419	-93.6962	-178.613	34.7084	-99.7588	-211.517	83.8699	-60.5595	-206.676	61.0205	-82.8828	-202.232	30.4366	-85.2777	-238.776	75.1728	-41.9171	-238.403	60.2679	-61.3049	-228.664	36.9798	-79.0539	-214.871	107.614	-8.09383	-218.921	116.384	25.3723	-181.557	119.559	9.04553	
16	0.133333	-152.574	97.6502	31.3839	-130.427	76.8899	13.0904	-114.446	67.3399	-1.67809	-96.698	55.9554	-15.5529	-160.217	103.612	-54.3299	-157.045	100.477	-83.5196	-156.705	99.6379	-107.159	-188.215	88.7096	-65.2812	-181.427	58.9017	-86.973	-175.46	24.944	-77.9606	-206.067	78.2747	-61.3819	-203.027	47.4534	-76.3413	-193.498	18.2985	-61.5232	-233.943	72.5806	-44.9809	-230.254	53.9407	-61.0091	-211.191	30.1262	-63.6604	-216.95	109.116	-4.71441	-218.938	117.665	23.2684	-184.457	120.189	8.13249	
17	0.141667	-151.587	96.5165	27.323	-136.164	73.148	12.6167	-120.243	61.2394	-6.71448	-105.028	47.4874	-22.3682	-158.463	106.35	-55.059	-158.834	102.904	-84.7623	-158.598	101.552	-107.865	-184.413	83.5843	-69.523	-175.315	53.6377	-80.0868	-171.396	20.6539	-55.6617	-206.607	72.2489	-61.4689	-198.536	41.4514	-67.4853	-184.571	21.4889	-42.4202	-228.841	71.4376	-45.1736	-219.511	44.0049	-56.888	-198.751	29.1359	-45.2626	-215.634	109.577	-9.01508	-222.137	115.757	21.945	-187.209	120.243	8.98089	
